<svg width="69" height="46" viewBox="0 0 69 46" fill="none" xmlns="http://www.w3.org/2000/svg">
<path fill-rule="evenodd" clip-rule="evenodd" d="M6 0C2.68629 0 0 2.68629 0 6V39.7545C0 43.0682 2.6863 45.7545 6.00001 45.7545H62.4935C65.8072 45.7545 68.4935 43.0682 68.4935 39.7545V6C68.4935 2.68629 65.8072 0 62.4935 0H6ZM37.1501 8.421C36.5514 6.57837 33.9446 6.57837 33.3459 8.42099L31.137 15.2191C30.8693 16.0432 30.1014 16.6011 29.2349 16.6011H22.0869C20.1495 16.6011 19.3439 19.0803 20.9114 20.2191L26.6942 24.4206C27.3952 24.9299 27.6885 25.8326 27.4207 26.6567L25.2119 33.4548C24.6132 35.2974 26.7221 36.8297 28.2896 35.6909L34.0724 31.4894C34.7734 30.9801 35.7226 30.9801 36.4235 31.4894L42.2064 35.6909C43.7738 36.8297 45.8828 35.2974 45.2841 33.4548L43.0752 26.6567C42.8075 25.8326 43.1008 24.9299 43.8018 24.4206L49.5846 20.2191C51.152 19.0803 50.3465 16.6011 48.409 16.6011H41.2611C40.3946 16.6011 39.6267 16.0432 39.3589 15.2191L37.1501 8.421Z" fill="#f7f7ff"/>
</svg>
