<svg width="74" height="82" viewBox="0 0 63 69" fill="none" xmlns="http://www.w3.org/2000/svg">
<rect x="22.4121" y="2.9082" width="38.3241" height="58.2035" rx="6" stroke="#f7f7ff" stroke-width="4"/>
<path fill-rule="evenodd" clip-rule="evenodd" d="M21.7828 4.54443C21.2811 5.59047 21 6.76249 21 8.00016V8.70563L8.21612 10.6142C6.0312 10.9404 4.5244 12.976 4.85059 15.161L11.6728 60.858C11.999 63.043 14.0347 64.5498 16.2196 64.2236L29.7493 62.2037H47.1511C46.0035 63.2868 44.5248 64.0422 42.8458 64.2928L16.8102 68.1797C12.4404 68.8321 8.36904 65.8185 7.71666 61.4487L0.894436 15.7516C0.242051 11.3817 3.25565 7.3104 7.6255 6.65801L21.7828 4.54443Z" fill="#f7f7ff"/>
<circle cx="41.5747" cy="50.9692" r="4.55707" fill="#f7f7ff"/>
<path d="M34.8418 10.7302H48.2233" stroke="#f7f7ff" stroke-width="2" stroke-linecap="round"/>
</svg>
