<svg
   width="294"
   height="300"
   version="1.1"
   viewBox="0 0 294 300"
   xmlns="http://www.w3.org/2000/svg"
   xmlns:svg="http://www.w3.org/2000/svg"> 
  <title>Spiro</title>
  <desc>Created with Sketch.</desc>
  <path
     id="spiro"
     d="m 222,150 c 0.93233,10.92648 6.92213,20.80864 7.7,31.9 4.44263,34.15966 -15.22513,68.26444 -44.1,85.8 C 147.65834,291.84504 96.07578,288.74175 59.50266,263.43511 21.788412,238.36623 -0.01069131,191.57048 5.4925524,146.56703 9.8004145,104.26811 38.859905,64.613138 79.7,51.1 c 29.88394,-10.505068 65.99781,-4.804289 88.7,18 7.55716,7.172011 13.44433,17.904534 24.9,18.9 19.72836,3.112302 38.84568,12.15579 51.9,27.6 26.2745,29.60518 29.50144,74.9381 12.7,110 -18.66202,40.75884 -61.75577,68.19038 -106.4,69.3 C 105.46089,297.06771 59.05703,271.15694 38.2,229.8 19.697219,195.10333 21.281662,149.25523 46.514542,118.23845 59.584376,101.64686 79.283403,91.320342 100,88.2 c 8.35855,-0.844881 14.78343,-6.476083 19.7,-12.9 17.31721,-21.033737 45.43258,-31.69472 72.4,-28.9 41.61147,3.590416 77.54167,35.239184 90.57894,74.29032 C 297.62246,162.90385 286.62715,212.49312 256,245 226.58806,277.29567 178.87571,292.25743 136.6,280.1 100.47384,270.54712 69.132306,239.73526 64.4,201.9 61.835519,185.85928 66.324479,169.9962 71.4,155 73.931003,144.1909 66.557791,134.34299 65.3,123.8 58.134345,90.256198 75.549514,54.927654 103.17048,35.797141 138.185,10.492198 187.43783,9.6478621 224.7,30.6 c 39.44789,21.160697 65.16361,64.96139 64.6,109.7 0.20013,42.89878 -24.54616,85.74347 -63.84962,104.07481 C 195.49617,259.11688 156.60071,257.31701 130.6,235.4 121.76676,229.17537 116.88325,218.1807 106.9,213.7 94.542067,210.15708 81.413,208.67939 70.2,201.8 38.288986,184.14473 22.05686,145.39214 26.3,109.9 30.559901,64.818805 64.477546,25.318018 107.19032,11.521064 150.97617,-3.7510506 202.84865,8.2587569 235.11584,41.668465 264.83863,71.149262 277.18173,118.3 261.4,157.7 c -10.13529,27.03101 -34.48063,48.5145 -63.2,53.2 -7.98424,1.24817 -16.29376,3.73012 -21.1,10.7 -12.76013,15.75006 -30.68902,27.62466 -50.92458,30.94992 C 88.051971,259.61167 48.217609,240.187 26.5,208.8 -0.0921373,171.99571 -2.1637456,120.15427 19.684271,80.618599 40.158408,41.847248 82.500134,15.558833 126.5,15.7 c 39.2512,-0.493353 79.29918,21.38633 95.9,57.7 9.97607,20.59402 10.1886,45.08552 1.8,66.2 -1.07361,3.38761 -2.21495,6.82903 -2.2,10.4 z"
     style="fill:none;fill-rule:evenodd;stroke:#ffffff;stroke-width:9" />
</svg>