<svg width="97" height="47" fill="none" xmlns="http://www.w3.org/2000/svg"><path fill-rule="evenodd" clip-rule="evenodd" d="M54.675 19.707H43.057v7.86h11.618v12.948a2 2 0 002 2h33.754a2 2 0 002-2V6.76a2 2 0 00-2-2H56.675a2 2 0 00-2 2v12.947zm-8 11.86h4v8.948a6 6 0 006 6h33.754a6 6 0 006-6V6.76a6 6 0 00-6-6H56.675a6 6 0 00-6 6v8.947H39.057v15.86h7.618z" fill="#f7f7ff"/><path fill-rule="evenodd" clip-rule="evenodd" d="M6.212.76a6 6 0 00-6 6v33.755a6 6 0 006 6h33.754a6 6 0 006-6V35.92H34.723V11.354h11.243V6.76a6 6 0 00-6-6H6.212z" fill="#f7f7ff"/></svg>